# xmcd CD database file
#
# Track frame offsets:
#	150
#	1100
#	18230
#	34350
#	35772
#	51845
#	70112
#	73602
#	90940
#	106470
#	128637
#	144730
#
# Disc length: 2179 seconds
#
# Revision: 2
# Processed by: cddbd v1.5.2PL0 Copyright (c) Steve Scherf et al.
# Submitted via: CDex 1.70beta2
#
DISCID=9c08810c
DTITLE=Y.G. FAMILY - famillenium
DYEAR=1900
DGENRE=Hip-Hop
TTITLE0=Y.G Millenium Intro
TTITLE1=우리는 Y.G Family
TTITLE2=Y.G Bounce
TTITLE3=Love/Hate Prelude
TTITLE4=서둘러
TTITLE5=흑과백
TTITLE6=Childhood skit
TTITLE7=돈돈돈 - Cash It
TTITLE8=전쟁과 평화
TTITLE9=S T P
TTITLE10=1TYM Attack
TTITLE11=세상의 축제
EXTD=
EXTT0=
EXTT1=
EXTT2=
EXTT3=
EXTT4=
EXTT5=
EXTT6=
EXTT7=
EXTT8=
EXTT9=
EXTT10=
EXTT11=
PLAYORDER=
